arm28_optimize_states
version=1
nRows=11
nColumns=21
inDegrees=yes

# SIMM Motion File Header:
name arm28_optimize_states
datacolumns 21
datarows 11
otherdata 1
range 1.46347755 1.51050039
endheader
time	r_shoulder_elev	r_elbow_flex	r_shoulder_elev_u	r_elbow_flex_u	TRIlong.activation	TRIlong.fiber_length	TRIlat.activation	TRIlat.fiber_length	TRImed.activation	TRImed.fiber_length	BIClong.activation	BIClong.fiber_length	BICshort.activation	BICshort.fiber_length	BRA.activation	BRA.fiber_length	DeltAnt.activation	DeltAnt.fiber_length	DeltPost.activation	DeltPost.fiber_length
      1.46347755	      8.77322507	     -5.61584476	      0.15347304	     -3.24373600	      0.01000000	      0.14068927	      0.01000000	      0.06891853	      0.01000000	      0.06396436	      0.01000000	      0.14380595	      0.01000000	      0.14829775	      0.01000000	      0.08663912	      0.01000000	      0.15692261	      0.01000000	      0.11611650
      1.46819122	      8.77391331	     -5.63245499	      0.13917874	     -3.80457581	      0.01000000	      0.14068569	      0.01000000	      0.06891434	      0.01000000	      0.06396014	      0.01000000	      0.14380712	      0.01000000	      0.14829910	      0.01000000	      0.08663793	      0.01000000	      0.15692220	      0.01000000	      0.11611707
      1.47290488	      8.77453472	     -5.65169958	      0.12413275	     -4.35936277	      0.01000000	      0.14068135	      0.01000000	      0.06890942	      0.01000000	      0.06395520	      0.01000000	      0.14380855	      0.01000000	      0.14830071	      0.01000000	      0.08663653	      0.01000000	      0.15692177	      0.01000000	      0.11611758
      1.47713703	      8.77503525	     -5.67120397	      0.11269916	     -4.85786698	      0.01000000	      0.14067681	      0.01000000	      0.06890439	      0.01000000	      0.06395015	      0.01000000	      0.14381006	      0.01000000	      0.14830237	      0.01000000	      0.08663510	      0.01000000	      0.15692147	      0.01000000	      0.11611800
      1.48136918	      8.77548715	     -5.69280918	      0.10084519	     -5.35147015	      0.01000000	      0.14067167	      0.01000000	      0.06889878	      0.01000000	      0.06394452	      0.01000000	      0.14381179	      0.01000000	      0.14830424	      0.01000000	      0.08663350	      0.01000000	      0.15692117	      0.01000000	      0.11611837
      1.48650894	      8.77597112	     -5.72184883	      0.08784878	     -5.94824175	      0.01000000	      0.14066463	      0.01000000	      0.06889120	      0.01000000	      0.06393693	      0.01000000	      0.14381417	      0.01000000	      0.14830679	      0.01000000	      0.08663133	      0.01000000	      0.15692087	      0.01000000	      0.11611878
      1.49164871	      8.77638961	     -5.75394190	      0.07464988	     -6.53805513	      0.01000000	      0.14065672	      0.01000000	      0.06888278	      0.01000000	      0.06392850	      0.01000000	      0.14381686	      0.01000000	      0.14830963	      0.01000000	      0.08662892	      0.01000000	      0.15692058	      0.01000000	      0.11611913
      1.49597710	      8.77669139	     -5.78331224	      0.06506830	     -7.03271537	      0.01000000	      0.14064940	      0.01000000	      0.06887505	      0.01000000	      0.06392077	      0.01000000	      0.14381935	      0.01000000	      0.14831224	      0.01000000	      0.08662669	      0.01000000	      0.15692040	      0.01000000	      0.11611939
      1.50030550	      8.77695131	     -5.81481196	      0.05497338	     -7.52123112	      0.01000000	      0.14064149	      0.01000000	      0.06886675	      0.01000000	      0.06391247	      0.01000000	      0.14382205	      0.01000000	      0.14831507	      0.01000000	      0.08662430	      0.01000000	      0.15692022	      0.01000000	      0.11611961
      1.50463389	      8.77716914	     -5.84841832	      0.04581289	     -8.00649236	      0.01000000	      0.14063299	      0.01000000	      0.06885787	      0.01000000	      0.06390360	      0.01000000	      0.14382495	      0.01000000	      0.14831809	      0.01000000	      0.08662173	      0.01000000	      0.15692008	      0.01000000	      0.11611980
      1.51050039	      8.77740211	     -5.89729846	      0.03332050	     -8.65533655	      0.01000000	      0.14062054	      0.01000000	      0.06884495	      0.01000000	      0.06389070	      0.01000000	      0.14382920	      0.01000000	      0.14832250	      0.01000000	      0.08661797	      0.01000000	      0.15691992	      0.01000000	      0.11612001
